# AST/ASF file generated using VICON BodyLanguage
# -----------------------------------------------
:version 1.10
:name VICON
:units
  mass 1.0
  length 0.45
  angle deg
:documentation
   .ast/.asf automatically generated from VICON data using
   VICON BodyBuilder and BodyLanguage model FoxedUp or BRILLIANT.MOD
:root
   order TX TY TZ RX RY RZ
   axis XYZ
   position 0 0 0  
   orientation 0 0 0 
:bonedata
  begin
     id 1 
     name lhipjoint
     direction 0.567725 -0.736092 0.368589 
     length 2.42353 
     axis 0 0 0  XYZ
  end
  begin
     id 2 
     name lfemur
     direction 0.34202 -0.939693 0  
     length 7.24894  
     axis 0 0 20  XYZ
    dof rx ry rz
    limits (-160.0 20.0)
           (-70.0 70.0)
           (-60.0 70.0)
  end
  begin
     id 3 
     name ltibia
     direction 0.34202 -0.939693 0   
     length 7.6997   
     axis 0 0 20   XYZ
    dof rx
    limits (-10.0 170.0)
  end
  begin
     id 4 
     name lfoot
     direction 0.100767 -0.276854 0.955614   
     length 2.37556   
     axis -90 7.62852e-016 20   XYZ
    dof rx rz
    limits (-45.0 90.0)
           (-70.0 20.0)
  end
  begin
     id 5 
     name ltoes
     direction 1.53592e-011 -4.21894e-011 1   
     length 1.18363   
     axis -90 7.62852e-016 20   XYZ
    dof rx
    limits (-90.0 20.0)
  end
  begin
     id 6 
     name rhipjoint
     direction -0.556459 -0.742938 0.372017   
     length 2.4012  
     axis 0 0 0  XYZ 
  end
  begin
     id 7 
     name rfemur
     direction -0.34202 -0.939693 0   
     length 7.5119   
     axis 0 0 -20   XYZ
    dof rx ry rz
    limits (-160.0 20.0)
           (-70.0 70.0)
           (-70.0 60.0)
  end
  begin
     id 8 
     name rtibia
     direction -0.34202 -0.939693 0   
     length 7.50155   
     axis 0 0 -20   XYZ
    dof rx
    limits (-10.0 170.0)
 end
 begin
     id 9 
     name rfoot
     direction -0.118427 -0.325376 0.938139   
     length 2.32487  
     axis -90 -7.62852e-016 -20   XYZ
    dof rx rz
    limits (-45.0 90.0)
           (-20.0 70.0)
  end
  begin
     id 10 
     name rtoes
     direction -1.53525e-011 -4.21868e-011 1   
     length 1.15233   
     axis -90 -7.62852e-016 -20   XYZ
    dof rx
    limits (-90.0 20.0)
  end
  begin
     id 11 
     name lowerback
     direction 0.0287568 0.999577 -0.00434502   
     length 2.15243   
     axis 0 0 0   XYZ
    dof rx ry rz
    limits (-20.0 45.0)
           (-30.0 30.0)
           (-30.0 30.0)
  end
  begin
     id 12 
     name upperback
     direction 0.0294009 0.99956 0.00404628   
     length 2.15427   
     axis 0 0 0   XYZ
    dof rx ry rz
    limits (-20.0 45.0)
           (-30.0 30.0)
           (-30.0 30.0)
  end
  begin
     id 13 
     name thorax
     direction 0.0151014 0.999868 0.0059419   
     length 2.14898   
     axis 0 0 0   XYZ
    dof rx ry rz
    limits (-20.0 45.0)
           (-30.0 30.0)
           (-30.0 30.0)
  end
  begin
     id 14 
     name lowerneck
     direction -0.0249197 0.989906 0.139515   
     length 1.6861   
     axis 0 0 0   XYZ
    dof rx ry rz
    limits (-20.0 45.0)
           (-30.0 30.0)
           (-30.0 30.0)
  end
  begin
     id 15 
     name upperneck
     direction 0.0438463 0.988795 -0.142693   
     length 1.71276   
     axis 0 0 0   XYZ
    dof rx ry rz
    limits (-20.0 45.0)
           (-30.0 30.0)
           (-30.0 30.0)
  end
  begin
     id 16
     name head
     direction 0.0148499 0.997845 -0.0639186  
     length 1.7209  
     axis 0 0 0   XYZ
    dof rx ry rz
    limits (-20.0 45.0)
           (-30.0 30.0)
           (-30.0 30.0)
  end
  begin
     id 17 
     name lclavicle
     direction 0.940298 0.323464 -0.105876  
     length 3.9048  
     axis 0 0 0   XYZ
    dof ry rz
    limits (-20.0 10.0)
           (0.0 20.0)
  end
  begin
     id 18 
     name lhumerus
     direction 1 -4.48954e-011 -4.9675e-028   
     length 4.6851   
     axis 180 -30 -90   XYZ
    dof rx ry rz
    limits (-60.0 90.0)
           (-90.0 90.0)
           (-90.0 90.0)
  end
  begin
     id 19
     name lradius
     direction 1 -4.48992e-011 -1.03359e-026   
     length 3.39626   
     axis 180 -30 -90   XYZ
    dof rx
    limits (-10.0 170.0)
  end
  begin
     id 20
     name lwrist
     direction 1 -4.48906e-011 -1.67336e-026   
     length 1.69813   
     axis 9.90442e-015 90 90   XYZ
    dof ry
    limits (-180.0 0.0)
 end
  begin
     id 21 
     name lhand
     direction 1 -4.49006e-011 -3.34673e-026   
     length 0.486078   
     axis 2.1355e-014 90 90   XYZ
    dof rx rz
    limits (-90.0 90.0)
           (-45.0 45.0)
  end
  begin
     id 22 
     name lfingers
     direction 1 -4.48992e-011 -6.69345e-026   
     length 0.391889   
     axis 4.27099e-014 90 90   XYZ
    dof rx
    limits (0.0 90.0)
  end
  begin
     id 23
     name lthumb
     direction 0.707107 -6.34926e-011 0.707107   
     length 0.562676   
     axis -90 45 2.85299e-015   XYZ
    dof rx rz
    limits (-45.0 45.0)
           (-45.0 45.0)
  end
  begin
     id 24 
     name rclavicle
     direction -0.882459 0.414895 -0.221648   
     length 3.44646  
     axis 0 0 0   XYZ 
    dof ry rz
    limits (-10.0 20.0)
           (-20.0 0.0)
  end
  begin
     id 25 
     name rhumerus
     direction -1 -4.48962e-011 -2.37984e-027  
     length 5.55576   
     axis 180 30 90   XYZ
    dof rx ry rz
    limits (-90.0 60.0)
           (-90.0 90.0)
           (-90.0 90.0)
  end
  begin
     id 26 
     name rradius
     direction -1 -4.48982e-011 -6.86791e-027   
     length 3.32774   
     axis 180 30 90   XYZ
    dof rx
    limits (-10.0 170.0)
  end
  begin
     id 27 
     name rwrist
     direction -1 -4.48961e-011 -1.67336e-026   
     length 1.66387   
     axis 9.90442e-015 -90 -90   XYZ
    dof ry
    limits (-180.0 0.0)
  end
  begin
     id 28
     name rhand
     direction -1 -4.4897e-011 -3.34673e-026   
     length 0.507628   
     axis 2.1355e-014 -90 -90   XYZ
    dof rx rz
    limits (-90.0 90.0)
           (-45.0 45.0)
  end
  begin
     id 29
     name rfingers
     direction -1 -4.48854e-011 -6.69345e-026   
     length 0.409263   
     axis 4.27099e-014 -90 -90   XYZ
    dof rx
    limits (0.0 90.0)
  end
  begin
     id 30
     name rthumb
     direction -0.707107 -6.34913e-011 0.707107   
     length 0.587622   
     axis -90 -45 -2.85299e-015   XYZ
    dof rx rz
    limits (-45.0 45.0)
           (-45.0 45.0)
  end
:hierarchy
  begin
    root lhipjoint rhipjoint lowerback
    lhipjoint lfemur
    lfemur ltibia
    ltibia lfoot
    lfoot ltoes
    rhipjoint rfemur
    rfemur rtibia
    rtibia rfoot
    rfoot rtoes
    lowerback upperback
    upperback thorax
    thorax lowerneck lclavicle rclavicle
    lowerneck upperneck
    upperneck head
    lclavicle lhumerus
    lhumerus lradius
    lradius lwrist
    lwrist lhand lthumb
    lhand lfingers
    rclavicle rhumerus
    rhumerus rradius
    rradius rwrist
    rwrist rhand rthumb
    rhand rfingers
  end

#!OML:ASF E:\motion texture\Top Level 1\Subject 1\Session 1\male.ASF
:FULLY-SPECIFIED
:DEGREES
87
root 41.0858 17.6653 5.64587 107.952 -84.1574 -98.7686
lowerback -4.74829 -0.864673 3.96432
upperback -2.00831 -1.43174 2.77545
thorax 0.571614 -0.758176 0.555534
lowerneck -17.537 -0.733884 -4.62995
upperneck 27.5048 -1.63471 5.01977
head 12.0229 -0.75009 2.38856
rclavicle 2.5842e-014 -5.68524e-014
rhumerus -30.9546 -16.8704 -75.8399
rradius 15.4228
rwrist 17.9663
rhand -11.8217 -27.9817
rfingers 7.12502
rthumb 14.2289 -57.4743
lclavicle 2.5842e-014 -5.68524e-014
lhumerus -22.5736 7.98749 91.5532
lradius 35.8649
lwrist 18.2091
lhand -7.46019 46.5339
lfingers 7.12502
lthumb 18.4282 75.6811
rfemur -10.2382 3.84051 28.2455
rtibia 18.9751
rfoot -12.7727 -12.4799
rtoes 10.2667
lfemur -15.65 -1.54021 -9.98746
ltibia 28.5882
lfoot -13.5055 3.33264
ltoes -7.11851
88
root 41.0624 17.6612 5.62884 107.489 -84.1094 -98.3671
lowerback -4.7131 -0.841356 4.03889
upperback -1.9798 -1.40354 2.79888
thorax 0.580579 -0.744067 0.539758
lowerneck -17.5763 -0.690811 -4.5866
upperneck 27.7391 -1.58931 4.96942
head 12.1196 -0.736341 2.3733
rclavicle -2.29845e-015 2.5842e-014
rhumerus -30.8599 -16.6352 -76.0264
rradius 15.488
rwrist 17.5715
rhand -11.7949 -28.1664
rfingers 7.12502
rthumb 14.2546 -57.6572
lclavicle -2.29845e-015 2.5842e-014
lhumerus -22.2128 6.57083 91.9888
lradius 37.5198
lwrist 19.3805
lhand -7.36192 46.5891
lfingers 7.12502
lthumb 18.5227 75.7272
rfemur -10.0603 3.8781 28.4001
rtibia 18.9467
rfoot -12.8446 -12.5476
rtoes 10.2622
lfemur -16.2195 -1.39098 -9.86721
ltibia 29.7631
lfoot -13.4788 3.25172
ltoes -7.66408
89
root 41.0384 17.6574 5.61177 107.023 -84.0634 -97.9637
lowerback -4.66676 -0.816486 4.09182
upperback -1.95777 -1.37179 2.83601
thorax 0.577637 -0.728404 0.550587
lowerneck -17.6154 -0.652891 -4.55719
upperneck 27.9731 -1.54508 4.91379
head 12.2169 -0.725364 2.35825
rclavicle 3.66509e-015 3.61788e-014
rhumerus -30.7531 -16.3104 -76.2398
rradius 15.5918
rwrist 17.0841
rhand -11.7725 -28.3541
rfingers 7.12502
rthumb 14.2762 -57.8434
lclavicle 3.66509e-015 3.61788e-014
lhumerus -21.8563 5.22075 92.3882
lradius 39.2042
lwrist 20.4154
lhand -7.25144 46.588
lfingers 7.12502
lthumb 18.629 75.716
rfemur -9.87586 3.91631 28.553
rtibia 18.9117
rfoot -12.9154 -12.6202
rtoes 10.2581
lfemur -16.8091 -1.24468 -9.74991
ltibia 30.9561
lfoot -13.4379 3.17474
ltoes -8.21589
90
root 41.0135 17.6537 5.59473 106.566 -84.0189 -97.5686
lowerback -4.62481 -0.789069 4.15668
upperback -1.93291 -1.33714 2.86145
thorax 0.579562 -0.711175 0.542745
lowerneck -17.6565 -0.617611 -4.52343
upperneck 28.1993 -1.5087 4.86948
head 12.3125 -0.715867 2.34541
rclavicle -6.36111e-015 -1.35174e-014
rhumerus -30.6275 -15.9406 -76.5062
rradius 15.7292
rwrist 16.5339
rhand -11.7559 -28.5483
rfingers 7.12502
rthumb 14.2922 -58.0364
lclavicle -6.36111e-015 -1.35174e-014
lhumerus -21.49 3.91405 92.719
lradius 40.9112
lwrist 21.3197
lhand -7.13239 46.5347
lfingers 7.12502
lthumb 18.7435 75.6517
rfemur -9.68529 3.95407 28.7041
rtibia 18.8699
rfoot -12.9851 -12.6947
rtoes 10.2539
lfemur -17.4172 -1.1 -9.63569
ltibia 32.1615
lfoot -13.3836 3.10416
ltoes -8.77287
91
root 40.9878 17.6501 5.57769 106.114 -83.9754 -97.1779
lowerback -4.58213 -0.760296 4.21898
upperback -1.91121 -1.3004 2.88699
thorax 0.577979 -0.692993 0.536571
lowerneck -17.6889 -0.585204 -4.49407
upperneck 28.4166 -1.4759 4.82851
head 12.4036 -0.708089 2.33381
rclavicle 4.01297e-015 -5.96354e-015
rhumerus -30.4917 -15.5057 -76.8104
rradius 15.902
rwrist 15.9137
rhand -11.7397 -28.7514
rfingers 7.12502
rthumb 14.3078 -58.2384
lclavicle 4.01297e-015 -5.96354e-015
lhumerus -21.1221 2.66487 92.9976
lradius 42.6325
lwrist 22.085
lhand -7.00151 46.4224
lfingers 7.12502
lthumb 18.8694 75.5272
rfemur -9.48835 3.9927 28.8542
rtibia 18.8206
rfoot -13.0534 -12.7725
rtoes 10.2525
lfemur -18.0419 -0.957033 -9.52363
ltibia 33.3728
lfoot -13.3166 3.04139
ltoes -9.32749
92
root 40.9612 17.6468 5.56064 105.661 -83.9344 -96.7854
lowerback -4.54323 -0.730099 4.27735
upperback -1.88831 -1.26182 2.91171
thorax 0.579898 -0.673795 0.531718
lowerneck -17.7193 -0.556559 -4.46761
upperneck 28.6231 -1.44756 4.7902
head 12.4907 -0.702111 2.32284
rclavicle -3.93842e-015 1.09332e-014
rhumerus -30.3393 -15.0202 -77.1482
rradius 16.1075
rwrist 15.2365
rhand -11.724 -28.963
rfingers 7.12502
rthumb 14.3229 -58.4489
lclavicle -3.93842e-015 1.09332e-014
lhumerus -20.7435 1.46972 93.2269
lradius 44.3596
lwrist 22.7129
lhand -6.86507 46.2519
lfingers 7.12502
lthumb 19.0006 75.3438
rfemur -9.28428 4.0308 29.0017
rtibia 18.7625
rfoot -13.1207 -12.8537
rtoes 10.2499
lfemur -18.6818 -0.81724 -9.41539
ltibia 34.5839
lfoot -13.2386 2.98564
ltoes -9.87278
93
root 40.9337 17.6436 5.54368 105.225 -83.8954 -96.4094
lowerback -4.48921 -0.698756 4.3286
upperback -1.879 -1.21998 2.93912
thorax 0.559706 -0.65349 0.534134
lowerneck -17.7367 -0.530188 -4.45011
upperneck 28.828 -1.42206 4.75701
head 12.5751 -0.698064 2.31479
rclavicle -2.44754e-015 1.80894e-014
rhumerus -30.1951 -14.4752 -77.5075
rradius 16.348
rwrist 14.5024
rhand -11.7135 -29.1773
rfingers 7.12502
rthumb 14.333 -58.6626
lclavicle -2.44754e-015 1.80894e-014
lhumerus -20.3795 0.333943 93.4137
lradius 46.0896
lwrist 23.1999
lhand -6.72242 46.0199
lfingers 7.12502
lthumb 19.1378 75.0984
rfemur -9.07464 4.0686 29.1461
rtibia 18.6973
rfoot -13.1869 -12.936
rtoes 10.2475
lfemur -19.3347 -0.680016 -9.31134
ltibia 35.7876
lfoot -13.1505 2.94067
ltoes -10.4117
94
root 40.9052 17.6407 5.52684 104.808 -83.8591 -96.0501
lowerback -4.4425 -0.665208 4.37647
upperback -1.86695 -1.17553 2.96495
thorax 0.54654 -0.631722 0.536725
lowerneck -17.752 -0.508056 -4.4353
upperneck 29.019 -1.40157 4.72671
head 12.6542 -0.695898 2.30728
rclavicle -9.69075e-015 2.54444e-014
rhumerus -30.0352 -13.8861 -77.8958
rradius 16.6214
rwrist 13.7189
rhand -11.7028 -29.3967
rfingers 7.12502
rthumb 14.3434 -58.8812
lclavicle -9.69075e-015 2.54444e-014
lhumerus -19.9998 -0.748316 93.5565
lradius 47.8069
lwrist 23.5497
lhand -6.57876 45.7288
lfingers 7.12502
lthumb 19.2759 74.7935
rfemur -8.85927 4.10543 29.2864
rtibia 18.6239
rfoot -13.2522 -13.0184
rtoes 10.2476
lfemur -19.9984 -0.545825 -9.21252
ltibia 36.9769
lfoot -13.0542 2.90784
ltoes -10.9371
95
root 40.8757 17.6379 5.51014 104.404 -83.825 -95.7023
lowerback -4.40214 -0.629532 4.42272
upperback -1.85086 -1.12864 2.98832
thorax 0.541143 -0.608525 0.537627
lowerneck -17.772 -0.490727 -4.42335
upperneck 29.1976 -1.38724 4.70167
head 12.73 -0.695695 2.30112
rclavicle -9.36773e-015 3.97569e-015
rhumerus -29.8581 -13.2652 -78.3085
rradius 16.9249
rwrist 12.8987
rhand -11.6948 -29.6191
rfingers 7.12502
rthumb 14.351 -59.1031
lclavicle -9.36773e-015 3.97569e-015
lhumerus -19.6026 -1.7786 93.6562
lradius 49.504
lwrist 23.7638
lhand -6.44041 45.3769
lfingers 7.12502
lthumb 19.4089 74.4283
rfemur -8.63754 4.14178 29.4232
rtibia 18.5421
rfoot -13.3165 -13.1017
rtoes 10.2456
lfemur -20.6702 -0.416202 -9.1181
ltibia 38.1438
lfoot -12.9503 2.8867
ltoes -11.4412
96
root 40.8453 17.6353 5.49356 104.02 -83.7937 -95.3719
lowerback -4.36965 -0.59313 4.46466
upperback -1.83662 -1.08105 3.01141
thorax 0.53837 -0.584968 0.540536
lowerneck -17.7748 -0.475564 -4.41744
upperneck 29.3598 -1.37549 4.68172
head 12.796 -0.696633 2.29715
rclavicle -1.01256e-014 3.45885e-014
rhumerus -29.6761 -12.6132 -78.7367
rradius 17.2567
rwrist 12.0515
rhand -11.6893 -29.8435
rfingers 7.12502
rthumb 14.3564 -59.3271
lclavicle -1.01256e-014 3.45885e-014
lhumerus -19.2024 -2.75251 93.7165
lradius 51.1757
lwrist 23.8439
lhand -6.31239 44.9742
lfingers 7.12502
lthumb 19.532 74.0131
rfemur -8.41096 4.17797 29.5558
rtibia 18.4522
rfoot -13.3796 -13.1851
rtoes 10.246
lfemur -21.3494 -0.290254 -9.02874
ltibia 39.2825
lfoot -12.841 2.87956
ltoes -11.9305
97
root 40.8138 17.6329 5.4772 103.645 -83.7648 -95.0476
lowerback -4.32677 -0.555063 4.50179
upperback -1.82908 -1.03004 3.03477
thorax 0.523103 -0.559968 0.546738
lowerneck -17.7803 -0.464422 -4.41483
upperneck 29.5165 -1.36811 4.66286
head 12.8608 -0.699553 2.29341
rclavicle -9.49197e-015 1.33186e-014
rhumerus -29.4943 -11.9307 -79.1762
rradius 17.6189
rwrist 11.1739
rhand -11.6856 -30.0714
rfingers 7.12502
rthumb 14.36 -59.5547
lclavicle -9.49197e-015 1.33186e-014
lhumerus -18.8002 -3.67109 93.744
lradius 52.8114
lwrist 23.7933
lhand -6.19331 44.5148
lfingers 7.12502
lthumb 19.6465 73.5421
rfemur -8.17895 4.21382 29.6842
rtibia 18.3537
rfoot -13.4423 -13.2688
rtoes 10.2488
lfemur -22.0332 -0.169693 -8.94438
ltibia 40.3849
lfoot -12.7286 2.88542
ltoes -12.4034
98
root 40.7813 17.6307 5.4611 103.288 -83.7388 -94.7387
lowerback -4.28939 -0.514642 4.54742
upperback -1.81807 -0.976382 3.04767
thorax 0.514203 -0.533461 0.537419
lowerneck -17.7921 -0.45717 -4.4086
upperneck 29.6601 -1.369 4.65352
head 12.9224 -0.703972 2.29123
rclavicle 5.59082e-016 2.08724e-014
rhumerus -29.2995 -11.2443 -79.6367
rradius 18.0066
rwrist 10.2859
rhand -11.6844 -30.3032
rfingers 7.12502
rthumb 14.3612 -59.7865
lclavicle 5.59082e-016 2.08724e-014
lhumerus -18.3817 -4.54288 93.7255
lradius 54.4013
lwrist 23.6185
lhand -6.08706 44.0038
lfingers 7.12502
lthumb 19.7487 73.0206
rfemur -7.94226 4.24755 29.8076
rtibia 18.248
rfoot -13.5035 -13.3516
rtoes 10.2446
lfemur -22.7187 -0.0543202 -8.86583
ltibia 41.4438
lfoot -12.6117 2.90693
ltoes -12.8547
99
root 40.7477 17.6286 5.44533 102.989 -83.7151 -94.4843
lowerback -4.25768 -0.471648 4.57913
upperback -1.80801 -0.91931 3.06779
thorax 0.508002 -0.505217 0.543327
lowerneck -17.797 -0.454076 -4.41366
upperneck 29.7883 -1.37106 4.64375
head 12.9765 -0.709962 2.29033
rclavicle 1.14177e-014 -2.38542e-015
rhumerus -29.0984 -10.5301 -80.0945
rradius 18.4222
rwrist 9.37717
rhand -11.6812 -30.5365
rfingers 7.12502
rthumb 14.3642 -60.0196
lclavicle 1.14177e-014 -2.38542e-015
lhumerus -17.9568 -5.35232 93.6889
lradius 55.9394
lwrist 23.3225
lhand -6.00199 43.4514
lfingers 7.12502
lthumb 19.8304 72.4597
rfemur -7.704 4.28198 29.9254
rtibia 18.1376
rfoot -13.5645 -13.4309
rtoes 10.2377
lfemur -23.4044 0.0580733 -8.79318
ltibia 42.4515
lfoot -12.4916 2.94473
ltoes -13.2798
100
root 40.713 17.6266 5.42984 102.73 -83.6942 -94.2669
lowerback -4.23137 -0.426804 4.60718
upperback -1.797 -0.860003 3.08703
thorax 0.505912 -0.475758 0.550365
lowerneck -17.8016 -0.454716 -4.423
upperneck 29.9026 -1.37688 4.63724
head 13.0253 -0.717273 2.29061
rclavicle -3.23025e-016 1.09332e-014
rhumerus -28.8887 -9.80108 -80.558
rradius 18.8639
rwrist 8.45571
rhand -11.6771 -30.7715
rfingers 7.12502
rthumb 14.3682 -60.2542
lclavicle -3.23025e-016 1.09332e-014
lhumerus -17.524 -6.10619 93.6247
lradius 57.4187
lwrist 22.9121
lhand -5.93604 42.8591
lfingers 7.12502
lthumb 19.8938 71.8608
rfemur -7.46291 4.31643 30.0377
rtibia 18.0216
rfoot -13.625 -13.5073
rtoes 10.2283
lfemur -24.0876 0.166057 -8.72625
ltibia 43.4022
lfoot -12.3708 2.99723
ltoes -13.6765
101
root 40.6771 17.6247 5.41469 102.499 -83.6766 -94.0731
lowerback -4.19318 -0.380956 4.62964
upperback -1.79926 -0.797771 3.10686
thorax 0.48369 -0.445346 0.561451
lowerneck -17.7906 -0.458332 -4.43721
upperneck 30.0078 -1.38611 4.63168
head 13.0673 -0.726649 2.29126
rclavicle -2.5345e-015 1.03368e-014
rhumerus -28.695 -9.0586 -81.0173
rradius 19.3322
rwrist 7.52731
rhand -11.6679 -31.0128
rfingers 7.12502
rthumb 14.377 -60.495
lclavicle -2.5345e-015 1.03368e-014
lhumerus -17.1084 -6.80101 93.5417
lradius 58.8346
lwrist 22.3931
lhand -5.89401 42.2349
lfingers 7.12502
lthumb 19.9342 71.2324
rfemur -7.21827 4.3508 30.1438
rtibia 17.899
rfoot -13.6862 -13.5814
rtoes 10.2234
lfemur -24.7664 0.267999 -8.66563
ltibia 44.2892
lfoot -12.2493 3.06442
ltoes -14.0442
